<svg xmlns="http://www.w3.org/2000/svg" viewBox="0 0 256 256" fill="none">
  <defs>
    <linearGradient id="bg" x1="24" y1="20" x2="228" y2="236" gradientUnits="userSpaceOnUse">
      <stop offset="0" stop-color="#0F172A"/>
      <stop offset="1" stop-color="#1E3A8A"/>
    </linearGradient>
    <linearGradient id="accent" x1="64" y1="64" x2="192" y2="192" gradientUnits="userSpaceOnUse">
      <stop offset="0" stop-color="#38BDF8"/>
      <stop offset="1" stop-color="#22C55E"/>
    </linearGradient>
    <linearGradient id="cell" x1="78" y1="78" x2="173" y2="173" gradientUnits="userSpaceOnUse">
      <stop offset="0" stop-color="#DBEAFE"/>
      <stop offset="1" stop-color="#BAE6FD"/>
    </linearGradient>
  </defs>

  <rect x="18" y="18" width="220" height="220" rx="56" fill="url(#bg)"/>
  <rect x="18" y="18" width="220" height="220" rx="56" stroke="#93C5FD" stroke-opacity=".18" stroke-width="2"/>

  <path
    d="M79 90c0-8.84 7.16-16 16-16h61c8.84 0 16 7.16 16 16v4h10c3.31 0 6 2.69 6 6v40c0 3.31-2.69 6-6 6h-10v4c0 8.84-7.16 16-16 16H95c-8.84 0-16-7.16-16-16V90Z"
    fill="url(#cell)"
  />
  <rect x="93" y="89" width="20" height="62" rx="8" fill="#0F172A" fill-opacity=".16"/>
  <rect x="118" y="89" width="20" height="62" rx="8" fill="#0EA5E9" fill-opacity=".78"/>
  <rect x="143" y="89" width="20" height="62" rx="8" fill="#22C55E" fill-opacity=".84"/>

  <path
    d="M67 150 118 129.5 178 95c5.76-3.31 13-.26 14.72 6.13 1.46 5.45-1.16 11.15-6.24 13.64l-63.08 30.94a26 26 0 0 1-11.44 2.64H67v1.65Z"
    fill="url(#accent)"
  />
  <path
    d="m109 137-15 23.5c-2.36 3.7.3 8.5 4.68 8.5h17.39c2.16 0 4.16-1.15 5.25-3.02L134 145.5"
    fill="#7DD3FC"
    fill-opacity=".92"
  />
  <circle cx="178" cy="107" r="7" fill="#E0F2FE"/>
</svg>
